{"title":"The Lone Ranger (2013) 1080p Hindi-Eng DD - 5.1ch Org (BY-GPSOFT","uid":9138441,"size":4490795839,"categoryP":"video","categoryS":"hd___movies","magnet":"?xt=urn:btih:e3087152a7d32494d160469b86bb46229c9ef961&amp;dn=The+Lone+Ranger+%282013%29+1080p+Hindi-Eng+DD+-+5.1ch+Org+%28BY-GPSOFT&amp;tr=udp%3A%2F%2Ftracker.openbittorrent.com%3A80&amp;tr=udp%3A%2F%2Fopen.demonii.com%3A1337&amp;tr=udp%3A%2F%2Ftracker.coppersurfer.tk%3A6969&amp;tr=udp%3A%2F%2Fexodus.desync.com%3A6969","seeders":4,"leechers":0,"uploader":"hirenraj","files":13,"time":1383463041,"description":"General\nFormat                                   : Matroska\nFormat version                           : Version 4 / Version 2\nFile size                                : 4.14 GiB\nDuration                                 : 2h 29mn\nOverall bit rate mode                    : Variable\nOverall bit rate                         : 3 966 Kbps\nMovie name                               : The Lone Ranger (2013) 1080p Hindi-Eng DD - 5.1ch Org  (BY-GPSOFT)\n\nVideo\nID                                       : 1\nFormat                                   : AVC\nFormat/Info                              : Advanced Video Codec\nFormat profile                           : &lt;a class=&quot;__cf_email__&quot; href=&quot;/cdn-cgi/l/email-protection&quot; data-cfemail=&quot;642c0d030c2428504a55&quot;&gt;[email&amp;#160;protected]&lt;/a&gt;&lt;script cf-hash='f9e31' type=&quot;text/javascript&quot;&gt;\n/* &lt;![CDATA[ */!function(){try{var t=&quot;currentScript&quot;in document?document.currentScript:function(){for(var t=document.getElementsByTagName(&quot;script&quot;),e=t.length;e--;)if(t[e].getAttribute(&quot;cf-hash&quot;))return t[e]}();if(t&amp;&amp;t.previousSibling){var e,r,n,i,c=t.previousSibling,a=c.getAttribute(&quot;data-cfemail&quot;);if(a){for(e=&quot;&quot;,r=parseInt(a.substr(0,2),16),n=2;a.length-n;n+=2)i=parseInt(a.substr(n,2),16)^r,e+=String.fromCharCode(i);e=document.createTextNode(e),c.parentNode.replaceChild(e,c)}}}catch(u){}}();/* ]]&gt; */&lt;/script&gt;\nFormat settings, CABAC                   : Yes\nFormat settings, ReFrames                : 3 frames\nCodec ID                                 : V_MPEG4/ISO/AVC\nDuration                                 : 2h 29mn\nBit rate mode                            : Variable\nBit rate                                 : 3 356 Kbps\nMaximum bit rate                         : 62.5 Mbps\nWidth                                    : 1 920 pixels\nHeight                                   : 800 pixels\nDisplay aspect ratio                     : 2.40:1\nFrame rate mode                          : Constant\nFrame rate                               : 23.976 fps\nColor space                              : YUV\nChroma subsampling                       : 4:2:0\nBit depth                                : 8 bits\nScan type                                : Progressive\nBits/(Pixel*Frame)                       : 0.091\nStream size                              : 3.43 GiB (83%)\nTitle                                    : The Lone Ranger (2013) 1080p Hindi-Eng DD - 5.1ch Org  (BY-GPSOFT)\nLanguage                                 : English\nDefault                                  : Yes\nForced                                   : No\n\nAudio #1\nID                                       : 2\nFormat                                   : AC-3\nFormat/Info                              : Audio Coding 3\nMode extension                           : CM (complete main)\nFormat settings, Endianness              : Big\nCodec ID                                 : A_AC3\nDuration                                 : 2h 29mn\nBit rate mode                            : Constant\nBit rate                                 : 384 Kbps\nChannel(s)                               : 6 channels\nChannel positions                        : Front: L C R, Side: L R, LFE\nSampling rate                            : 48.0 KHz\nBit depth                                : 16 bits\nCompression mode                         : Lossy\nStream size                              : 411 MiB (10%)\nTitle                                    : Dolby Digital 5.1Ch Org By - GPSOFT\nLanguage                                 : Hindi\nDefault                                  : Yes\nForced                                   : No\n\nAudio #2\nID                                       : 3\nFormat                                   : AC-3\nFormat/Info                              : Audio Coding 3\nMode extension                           : CM (complete main)\nFormat settings, Endianness              : Big\nCodec ID                                 : A_AC3\nDuration                                 : 2h 29mn\nBit rate mode                            : Constant\nBit rate                                 : 224 Kbps\nChannel(s)                               : 6 channels\nChannel positions                        : Front: L C R, Side: L R, LFE\nSampling rate                            : 48.0 KHz\nBit depth                                : 16 bits\nCompression mode                         : Lossy\nStream size                              : 240 MiB (6%)\nTitle                                    : Dolby Digital 5.1Ch Org By - GPSOFT\nLanguage                                 : English\nDefault                                  : No\nForced                                   : No\n\nText\nID                                       : 4\nFormat                                   : UTF-8\nCodec ID                                 : S_TEXT/UTF8\nCodec ID/Info                            : UTF-8 Plain Text\nTitle                                    : Subtitle\nLanguage                                 : English\nDefault                                  : No\nForced                                   : No\n\nMenu\n00:00:00.000                             : en:00:00:00.000\n00:08:16.121                             : en:00:08:16.121\n00:13:38.776                             : en:00:13:38.776\n00:24:51.407                             : en:00:24:51.407\n00:29:03.033                             : en:00:29:03.033\n00:32:05.841                             : en:00:32:05.841\n00:40:32.013                             : en:00:40:32.013\n00:45:29.644                             : en:00:45:29.644\n00:53:29.665                             : en:00:53:29.665\n01:01:05.662                             : en:01:01:05.662\n01:10:01.614                             : en:01:10:01.614\n01:16:12.318                             : en:01:16:12.318\n01:24:45.455                             : en:01:24:45.455\n01:28:39.731                             : en:01:28:39.731\n01:35:35.188                             : en:01:35:35.188\n01:41:13.985                             : en:01:41:13.985\n01:46:35.806                             : en:01:46:35.806\n01:50:02.179                             : en:01:50:02.179\n01:53:55.203                             : en:01:53:55.203\n01:56:15.260                             : en:01:56:15.260\n02:01:51.095                             : en:02:01:51.095\n02:12:07.211                             : en:02:12:07.211\n02:17:13.934                             : en:02:17:13.934\n02:20:20.287                             : en:02:20:20.287\n","torrent":{"xt":"urn:btih:e3087152a7d32494d160469b86bb46229c9ef961","amp;dn":"The+Lone+Ranger+%282013%29+1080p+Hindi-Eng+DD+-+5.1ch+Org+%28BY-GPSOFT","amp;tr":["udp%3A%2F%2Ftracker.openbittorrent.com%3A80","udp%3A%2F%2Fopen.demonii.com%3A1337","udp%3A%2F%2Ftracker.coppersurfer.tk%3A6969","udp%3A%2F%2Fexodus.desync.com%3A6969"],"infoHash":"e3087152a7d32494d160469b86bb46229c9ef961","infoHashBuffer":{"type":"Buffer","data":[227,8,113,82,167,211,36,148,209,96,70,155,134,187,70,34,156,158,249,97]},"announce":[],"urlList":[]}}